# xmcd
#
# Track frame offsets:
#	150
#	17585
#	32897
#	43037
#	54852
#	68225
#	84035
#	97615
#	113632
#	124925
#
# Disc length: 1869 seconds
#
# Revision: 0
# Processed by: cddbd v1.4PL0 Copyright (c) Steve Scherf et al.
# Submitted via: EasyCDDAExtractor 4.6.0.1
#
DISCID=6d074b0a
DTITLE=LOS IDEALES - 2002
DYEAR=2002
DGENRE=GUITARRAS
TTITLE0=PIENSA MORENA
TTITLE1=TE VOY A COMPLACER
TTITLE2=ELCHAMACO MODERNO
TTITLE3=HAY OJITOS
TTITLE4=TU CAMINO Y EL MIO
TTITLE5=QUIERO VER
TTITLE6=TRES DIAS
TTITLE7=PALOMA AZUL
TTITLE8=AUNQUE TENGAS OTROS AMORES
TTITLE9=CELOS
EXTD=
EXTT0=
EXTT1=
EXTT2=
EXTT3=
EXTT4=
EXTT5=
EXTT6=
EXTT7=
EXTT8=
EXTT9=
PLAYORDER=
